<?xml version="1.0" encoding="UTF-8" standalone="no"?>
<!-- Created with Inkscape (http://www.inkscape.org/) -->

<svg
   xmlns:dc="http://purl.org/dc/elements/1.1/"
   xmlns:cc="http://creativecommons.org/ns#"
   xmlns:rdf="http://www.w3.org/1999/02/22-rdf-syntax-ns#"
   xmlns:svg="http://www.w3.org/2000/svg"
   xmlns="http://www.w3.org/2000/svg"
   xmlns:sodipodi="http://sodipodi.sourceforge.net/DTD/sodipodi-0.dtd"
   xmlns:inkscape="http://www.inkscape.org/namespaces/inkscape"
   width="210mm"
   height="297mm"
   viewBox="0 0 210 297"
   version="1.1"
   id="svg8"
   inkscape:version="0.92.3 (2405546, 2018-03-11)"
   sodipodi:docname="ennemy.svg">
  <defs
     id="defs2">
    <inkscape:path-effect
       down_right_point="168.15686,236.51255"
       down_left_point="116.55382,236.51255"
       up_right_point="168.15686,131.10573"
       up_left_point="116.55382,130.57119"
       effect="perspective-envelope"
       id="path-effect953"
       is_visible="true"
       deform_type="perspective"
       horizontal_mirror="false"
       vertical_mirror="false"
       overflow_perspective="false" />
    <inkscape:path-effect
       effect="envelope"
       id="path-effect951"
       is_visible="true"
       yy="true"
       xx="false"
       bendpath1="m 116.67049,109.03139 h 51.60304"
       bendpath2="M 168.27353,109.03139 V 236.62158"
       bendpath3="m 116.67049,236.62158 h 51.60304"
       bendpath4="M 116.67049,109.03139 V 236.62158" />
    <inkscape:path-effect
       effect="envelope"
       id="path-effect933"
       is_visible="true"
       yy="true"
       xx="true"
       bendpath1="m 116.78728,109.14053 h 51.60304"
       bendpath2="M 168.39032,109.14053 V 236.73072"
       bendpath3="m 116.78728,236.73072 h 51.60304"
       bendpath4="M 116.78728,109.14053 V 236.73072" />
    <inkscape:path-effect
       effect="mirror_symmetry"
       start_point="-36.749561,104.69956"
       end_point="-36.749561,145.72544"
       center_point="-36.749561,125.2125"
       id="path-effect4570"
       is_visible="true"
       mode="free"
       discard_orig_path="false"
       fuse_paths="true"
       oposite_fuse="false" />
    <inkscape:path-effect
       effect="bend_path"
       id="path-effect865"
       is_visible="true"
       bendpath="m -57.730217,125.2125 h 20.980656"
       prop_scale="1"
       scale_y_rel="false"
       vertical="false" />
  </defs>
  <sodipodi:namedview
     id="base"
     pagecolor="#bbbbbb"
     bordercolor="#666666"
     borderopacity="1.0"
     inkscape:pageopacity="0"
     inkscape:pageshadow="2"
     inkscape:zoom="0.98994949"
     inkscape:cx="363.0833"
     inkscape:cy="479.57318"
     inkscape:document-units="mm"
     inkscape:current-layer="g931"
     showgrid="false"
     inkscape:window-width="1600"
     inkscape:window-height="837"
     inkscape:window-x="-8"
     inkscape:window-y="-8"
     inkscape:window-maximized="1" />
  <metadata
     id="metadata5">
    <rdf:RDF>
      <cc:Work
         rdf:about="">
        <dc:format>image/svg+xml</dc:format>
        <dc:type
           rdf:resource="http://purl.org/dc/dcmitype/StillImage" />
        <dc:title />
      </cc:Work>
    </rdf:RDF>
  </metadata>
  <g
     inkscape:label="Calque 1"
     inkscape:groupmode="layer"
     id="layer1">
    <path
       sodipodi:nodetypes="cccsccccccc"
       inkscape:connector-curvature="0"
       id="path859"
       d="m 78.318703,211.16355 -15.157376,-2.18432 c -2.287545,3.16758 -3.106615,6.60724 -3.836126,10.06349 0.541109,3.83983 0.664635,6.8896 0.680243,6.90545 0.559537,0.56826 1.998834,2.13231 2.220243,4.09419 -4.531888,1.41253 -6.213891,1.65881 -7.426719,2.72925 -1.044758,1.39504 -1.270669,2.24608 -0.619789,2.73155 5.5992,0.0833 11.109995,0.23044 17.683604,-0.39005 0.639022,-5.71488 1.631837,-12.46383 0.935641,-14.27612 l -0.748512,-1.71626 c 2.546728,-1.58518 4.523186,-5.05955 6.268791,-7.95718 z"
       style="opacity:1;fill:#1e560f;fill-opacity:1;fill-rule:nonzero;stroke:none;stroke-width:0.90412724;stroke-linecap:round;stroke-linejoin:round;stroke-miterlimit:4;stroke-dasharray:none;stroke-dashoffset:0;stroke-opacity:1;paint-order:normal"
       inkscape:export-filename="C:\Users\Louis\rect4587-4.png"
       inkscape:export-xdpi="50"
       inkscape:export-ydpi="50" />
    <path
       style="fill:#17420b;fill-opacity:1;stroke:none;stroke-width:0.90854084;stroke-linecap:butt;stroke-linejoin:miter;stroke-miterlimit:4;stroke-dasharray:none;stroke-opacity:1"
       d="m 69.498342,162.25937 c 11.522952,0.78096 15.044085,0.007 20.972394,-0.29786 l 5.81647,4.31541 c -0.178169,11.47207 4.547844,24.42614 -0.959762,35.8982 -10.131213,-0.0674 -16.345457,1.83335 -33.94323,-1.98555 l 0.157954,-32.36833 z"
       id="path849"
       inkscape:connector-curvature="0"
       sodipodi:nodetypes="ccccccc"
       inkscape:export-filename="C:\Users\Louis\rect4587-4.png"
       inkscape:export-xdpi="50"
       inkscape:export-ydpi="50" />
    <path
       style="opacity:1;fill:#1e560f;fill-opacity:1;fill-rule:nonzero;stroke:none;stroke-width:0.90993887;stroke-linecap:round;stroke-linejoin:round;stroke-miterlimit:4;stroke-dasharray:none;stroke-dashoffset:0;stroke-opacity:1;paint-order:normal"
       d="m 78.318703,211.16355 15.352862,-2.18432 c 2.317048,3.16758 3.146682,6.60724 3.885601,10.06349 -0.548088,3.83983 -0.673207,6.8896 -0.689016,6.90545 -0.566753,0.56826 -2.024613,2.13231 -2.248878,4.09419 4.590336,1.41253 6.294028,1.65881 7.522498,2.72925 1.05824,1.39504 1.28706,2.24608 0.62779,2.73155 -5.671417,0.0833 -11.253285,0.23044 -17.911674,-0.39005 -0.647264,-5.71488 -1.652883,-12.46383 -0.947708,-14.27612 l 0.758165,-1.71626 c -2.579573,-1.58518 -4.581522,-5.05955 -6.34964,-7.95718 z"
       id="path4589"
       inkscape:connector-curvature="0"
       sodipodi:nodetypes="cccsccccccc"
       inkscape:export-filename="C:\Users\Louis\rect4587-4.png"
       inkscape:export-xdpi="50"
       inkscape:export-ydpi="50" />
    <path
       style="fill:#1e560f;fill-opacity:1;stroke:none;stroke-width:0.90854084;stroke-linecap:butt;stroke-linejoin:miter;stroke-miterlimit:4;stroke-dasharray:none;stroke-opacity:1"
       d="m 69.498342,162.25937 c -4.309452,0.84295 -12.288929,1.35243 -22.489583,19.96794 2.830483,9.05729 7.764093,13.60093 12.284226,19.03195 l 6.80357,-2.34 c -1.375417,-4.79147 -0.329085,-10.22949 -6.614583,-14.81996 4.725451,-1.73921 8.394115,-5.58379 11.694335,-12.61704 1.399556,-4.10327 0.842432,-7.17871 -1.677965,-9.22289 z"
       id="path845"
       inkscape:connector-curvature="0"
       sodipodi:nodetypes="ccccccc"
       inkscape:export-filename="C:\Users\Louis\rect4587-4.png"
       inkscape:export-xdpi="50"
       inkscape:export-ydpi="50" />
    <path
       style="opacity:1;fill:#2c1607;fill-opacity:1;fill-rule:nonzero;stroke:none;stroke-width:0.90854084;stroke-linecap:round;stroke-linejoin:round;stroke-miterlimit:4;stroke-dasharray:none;stroke-dashoffset:0;stroke-opacity:1;paint-order:normal"
       d="m 62.140166,198.47358 c 10.641208,2.77347 22.043378,3.16005 33.94323,1.98554 -0.908378,5.92352 1.860466,9.27686 2.424618,13.9821 -1.110128,0.58876 -4.53047,2.10814 -6.142113,1.24799 l -1.228423,-1.94999 -0.377976,2.184 c -1.508925,0.29584 -2.974747,0.73399 -4.724702,0.234 -0.02169,-0.65162 -1.197888,-1.11264 -2.456846,-1.56 v 1.872 l -2.83482,0.46799 c 0.110235,-0.65216 0.05673,-1.32686 -1.322917,-2.18399 l -1.889881,1.48199 c -1.61097,-0.98422 -2.463897,-2.59417 -7.181549,-1.01399 l -0.377976,-2.49599 -3.023809,1.40399 -7.276041,-1.94999 c 1.475383,-1.74198 3.096304,-3.85814 3.375783,-6.27583 0.556307,-4.81247 -1.077318,-5.04207 -0.906578,-7.42982"
       id="path855"
       inkscape:connector-curvature="0"
       sodipodi:nodetypes="ccccccccccccccccsc"
       inkscape:export-filename="C:\Users\Louis\rect4587-4.png"
       inkscape:export-xdpi="50"
       inkscape:export-ydpi="50" />
    <path
       style="opacity:1;fill:#5e2110;fill-opacity:1;fill-rule:nonzero;stroke:none;stroke-width:0.90854084;stroke-linecap:round;stroke-linejoin:round;stroke-miterlimit:4;stroke-dasharray:none;stroke-dashoffset:0;stroke-opacity:1;paint-order:normal"
       d="m 56.527507,201.4519 c 0.178693,-0.51478 -0.240655,-1.02954 -1.069078,-1.54431 l 1.469983,-1.87525 c 7.694088,2.71158 11.293238,4.74712 24.588795,8.38344 3.9905,-0.75018 7.015752,-1.21347 9.755338,-1.76494 10.615265,0.30045 18.707585,6.41793 20.045215,10.69991 -0.0675,4.25512 -0.56785,8.31042 -5.61266,10.4793 -12.342749,-0.33616 -16.163368,-4.40942 -20.71339,-8.16283 l -6.013564,-7.61127 c -9.116915,-4.33884 -16.084733,-6.74246 -22.450639,-8.60405 z"
       id="path853"
       inkscape:connector-curvature="0"
       sodipodi:nodetypes="cccccccccc"
       inkscape:export-filename="C:\Users\Louis\rect4587-4.png"
       inkscape:export-xdpi="50"
       inkscape:export-ydpi="50" />
    <path
       style="opacity:1;fill:#215e10;fill-opacity:1;fill-rule:nonzero;stroke:none;stroke-width:0.90854084;stroke-linecap:round;stroke-linejoin:round;stroke-miterlimit:4;stroke-dasharray:none;stroke-dashoffset:0;stroke-opacity:1;paint-order:normal"
       d="m 59.954443,199.62126 c 1.094916,-1.66766 3.600824,-1.21146 6.142112,-0.702 2.881055,0.4929 3.890549,1.95134 2.740329,4.52399 -0.804721,1.78142 -2.764302,2.47338 -7.087055,0.936 -1.194795,-0.69996 -2.988174,-0.51055 -1.795386,-4.75799 z"
       id="path851"
       inkscape:connector-curvature="0"
       sodipodi:nodetypes="ccccc"
       inkscape:export-filename="C:\Users\Louis\rect4587-4.png"
       inkscape:export-xdpi="50"
       inkscape:export-ydpi="50" />
    <path
       style="fill:#1e560f;fill-opacity:1;stroke:none;stroke-width:0.90854084;stroke-linecap:butt;stroke-linejoin:miter;stroke-miterlimit:4;stroke-dasharray:none;stroke-opacity:1"
       d="m 90.470736,161.96151 c 10.127004,1.83345 22.248404,20.24498 22.450644,22.94414 -2.09543,5.04079 -11.07899,6.80132 -19.510679,8.82467 l -4.810852,-5.95666 9.888973,-5.18449 c -3.578731,-3.56663 -8.325106,-7.13326 -9.354433,-10.6999 -0.676344,-4.23524 -0.812313,-8.02442 1.336347,-9.92776 z"
       id="path847"
       inkscape:connector-curvature="0"
       sodipodi:nodetypes="ccccccc"
       inkscape:export-filename="C:\Users\Louis\rect4587-4.png"
       inkscape:export-xdpi="50"
       inkscape:export-ydpi="50" />
    <path
       style="opacity:1;fill:#215e10;fill-opacity:1;fill-rule:nonzero;stroke:#215e10;stroke-width:1;stroke-linecap:round;stroke-linejoin:round;stroke-miterlimit:4;stroke-dasharray:none;stroke-dashoffset:0;stroke-opacity:1;paint-order:normal"
       d="m 78.786734,169.49486 c 6.789744,-0.95984 14.690459,-1.85117 18.391482,-6.949 1.26107,-2.81685 2.11178,-7.65533 -0.46772,-9.75534 1.21719,-11.6757 -2.989648,-22.89397 -18.040692,-24.32153 -15.051044,1.42756 -19.257879,12.64583 -18.040691,24.32153 -2.579505,2.10001 -1.728789,6.93849 -0.467721,9.75534 5.45168,4.7039 11.807149,6.79798 18.391482,6.949"
       id="path863-3"
       inkscape:connector-curvature="0"
       sodipodi:nodetypes="ccccccc"
       inkscape:export-filename="C:\Users\Louis\rect4587-4.png"
       inkscape:export-xdpi="50"
       inkscape:export-ydpi="50" />
    <path
       style="opacity:1;fill:#161616;fill-opacity:1;fill-rule:nonzero;stroke:#161616;stroke-width:1.1229564;stroke-linecap:round;stroke-linejoin:round;stroke-miterlimit:4;stroke-dasharray:none;stroke-dashoffset:0;stroke-opacity:1;paint-order:normal"
       d="m 64.985967,144.45309 h 28.490526 l -1.984996,2.98786 H 66.737432 Z"
       id="path4577"
       inkscape:connector-curvature="0"
       sodipodi:nodetypes="ccccc"
       inkscape:export-filename="C:\Users\Louis\rect4587-4.png"
       inkscape:export-xdpi="50"
       inkscape:export-ydpi="50" />
    <ellipse
       style="opacity:1;fill:#161616;fill-opacity:1;fill-rule:nonzero;stroke:none;stroke-width:1.12266612;stroke-linecap:round;stroke-linejoin:round;stroke-miterlimit:4;stroke-dasharray:none;stroke-dashoffset:0;stroke-opacity:1;paint-order:normal"
       id="path4579"
       cx="72.518608"
       cy="148.8549"
       rx="3.0942578"
       ry="4.3372259"
       inkscape:export-filename="C:\Users\Louis\rect4587-4.png"
       inkscape:export-xdpi="50"
       inkscape:export-ydpi="50" />
    <ellipse
       ry="4.3372259"
       rx="3.0942578"
       cy="148.8549"
       cx="85.793358"
       id="ellipse4581"
       style="opacity:1;fill:#161616;fill-opacity:1;fill-rule:nonzero;stroke:none;stroke-width:1.12266612;stroke-linecap:round;stroke-linejoin:round;stroke-miterlimit:4;stroke-dasharray:none;stroke-dashoffset:0;stroke-opacity:1;paint-order:normal"
       inkscape:export-filename="C:\Users\Louis\rect4587-4.png"
       inkscape:export-xdpi="50"
       inkscape:export-ydpi="50" />
    <g
       id="g931">
      <path
         style="opacity:1;fill:#17420b;fill-opacity:1;fill-rule:nonzero;stroke:none;stroke-width:1.27094042;stroke-linecap:round;stroke-linejoin:round;stroke-miterlimit:4;stroke-dasharray:none;stroke-dashoffset:0;stroke-opacity:0.48068668;paint-order:normal"
         d="m 128.10119,164.46978 c 1.88043,0.0681 18.18818,0.65844 20.06193,0.72627 7.36923,1.71014 6.091,5.36777 6.64416,9.51406 -0.29873,3.72647 -2.73812,11.37084 -3.17478,18.80486 0.044,4.43158 1.13596,5.49869 1.86716,7.72319 -10.08744,0.0323 -19.988,0.2049 -31.0788,-1.04562 1.19246,-4.44663 1.51316,-8.3934 1.2561,-12.42306 -0.79725,-4.27 -3.4152,-8.98105 -3.83551,-13.61498 2.18593,-5.44313 5.08088,-8.169 8.25974,-9.68472 z"
         id="path854"
         inkscape:connector-curvature="0"
         inkscape:export-xdpi="50.239616"
         inkscape:export-ydpi="50.239616" />
      <path
         style="opacity:1;fill:#1e560f;fill-opacity:1;fill-rule:nonzero;stroke:none;stroke-width:1.16095138;stroke-linecap:round;stroke-linejoin:round;stroke-miterlimit:4;stroke-dasharray:none;stroke-dashoffset:0;stroke-opacity:0.48068668;paint-order:normal"
         d="m 122.46969,208.56672 c 1.24625,5.87466 4.83854,10.90915 11.23185,12.10511 -6.58619,2.44624 -3.71516,6.99216 -5.4355,10.52072 -2.85751,1.58808 -2.85828,3.25002 0.11823,4.98751 1.4233,0.0254 17.22665,0.3072 18.64514,0.33249 4.45907,-1.55436 5.61834,-5.64504 0,-5.31023 -2.08893,2.96773 -3.73372,0.5056 -5.53922,-0.003 1.32396,-4.77834 5.07825,-8.03041 9.18946,-11.05422 -0.0531,-5.50647 -2.89609,-10.32154 -5.18176,-15.27751 3.73255,-0.59956 -26.78037,4.30172 -23.0282,3.69901 z"
         id="path866"
         inkscape:connector-curvature="0"
         inkscape:export-xdpi="50.239616"
         inkscape:export-ydpi="50.239616" />
      <path
         style="opacity:1;fill:#2c1607;fill-opacity:1;fill-rule:nonzero;stroke:none;stroke-width:1.23599994;stroke-linecap:round;stroke-linejoin:round;stroke-miterlimit:4;stroke-dasharray:none;stroke-dashoffset:0;stroke-opacity:0.48068668;paint-order:normal"
         d="m 122.42086,199.63941 c -1.203,5.1753 -0.94246,9.79618 -0.75617,13.97128 0.87588,-0.27876 2.19035,-0.47605 3.75561,-0.60134 0.61458,-0.65455 1.30956,-1.37539 2.27885,-2.32238 -0.001,-0.002 1.47535,2.77684 1.474,2.77431 2.3284,-0.41191 4.54654,-0.64313 6.69467,-0.76014 0.0384,-0.0335 2.23587,-1.95427 2.27419,-1.98777 1.57414,0.59443 1.83965,1.18551 2.40686,1.77728 2.22756,1.04926 2.9179,0.62075 5.1442,0.2334 0.12843,0.0211 2.60864,0.42779 2.73701,0.44884 -0.14749,0.0811 1.3486,-0.74199 1.20114,-0.66086 0,0 3.06831,-2.03829 3.06831,-2.03829 0.007,-0.0932 0.79268,-9.91035 0.80013,-10.00358 -10.33858,0.82793 -20.69815,0.25146 -31.0788,-0.83075 z"
         id="path864"
         inkscape:connector-curvature="0"
         inkscape:export-xdpi="50.239616"
         inkscape:export-ydpi="50.239616" />
      <path
         style="opacity:1;fill:#3e3730;fill-opacity:1;fill-rule:nonzero;stroke:none;stroke-width:1.21380901;stroke-linecap:round;stroke-linejoin:round;stroke-miterlimit:4;stroke-dasharray:none;stroke-dashoffset:0;stroke-opacity:0.48068668;paint-order:normal"
         d="m 164.50406,179.64938 c -1e-5,7.25082 -3.2284,13.1149 -7.21365,13.09778 -3.98836,-0.0171 -7.22387,-5.91732 -7.22387,-13.17843 0,-7.26112 3.23551,-13.12516 7.22387,-13.09774 3.98525,0.0274 7.21365,5.92756 7.21365,13.17839 z"
         id="path846"
         inkscape:connector-curvature="0"
         inkscape:export-xdpi="50.239616"
         inkscape:export-ydpi="50.239616" />
      <path
         style="opacity:1;fill:#5e3710;fill-opacity:1;fill-rule:nonzero;stroke:none;stroke-width:1.05302048;stroke-linecap:round;stroke-linejoin:round;stroke-miterlimit:4;stroke-dasharray:none;stroke-dashoffset:0;stroke-opacity:0.48068668;paint-order:normal"
         d="m 164.20777,179.73525 c 0,6.29052 -2.80079,11.37751 -6.25786,11.3621 -3.45942,-0.0154 -6.26555,-5.13369 -6.26555,-11.43195 0,-6.29826 2.80613,-11.38522 6.26555,-11.36205 3.45707,0.0232 6.25786,5.14138 6.25786,11.4319 z"
         id="ellipse850"
         inkscape:connector-curvature="0"
         inkscape:export-xdpi="50.239616"
         inkscape:export-ydpi="50.239616" />
      <path
         style="opacity:1;fill:#3e3730;fill-opacity:1;fill-rule:nonzero;stroke:none;stroke-width:0.35139754;stroke-linecap:round;stroke-linejoin:round;stroke-miterlimit:4;stroke-dasharray:none;stroke-dashoffset:0;stroke-opacity:0.48068668;paint-order:normal"
         d="m 160.88646,180.02061 c 0,2.09987 -0.93507,3.79731 -2.08878,3.79133 -1.15397,-0.006 -2.08964,-1.71379 -2.08963,-3.81451 0,-2.10071 0.93566,-3.79814 2.08963,-3.79131 1.15371,0.007 2.08878,1.71463 2.08878,3.81449 z"
         id="ellipse852"
         inkscape:connector-curvature="0"
         inkscape:export-xdpi="50.239616"
         inkscape:export-ydpi="50.239616" />
      <path
         style="opacity:1;fill:#1e560f;fill-opacity:1;fill-rule:nonzero;stroke:none;stroke-width:1.23599994;stroke-linecap:round;stroke-linejoin:round;stroke-miterlimit:4;stroke-dasharray:none;stroke-dashoffset:0;stroke-opacity:0.48068668;paint-order:normal"
         d="m 127.96718,167.68309 c 8.72425,-4.54811 13.7032,-2.16326 18.19329,1.11833 1.60201,2.73646 3.74404,4.71008 -2.93864,19.12657 4.17732,1.7288 4.09702,6.12264 10.27783,11.32602 -0.0122,0.0234 -2.54861,4.88385 -2.56079,4.90719 -7.01709,-4.24895 -16.27379,-6.02771 -23.6418,-14.09218 -2.9785,-10.12722 -0.81054,-15.97166 0.67011,-22.38593 z"
         id="path856"
         inkscape:connector-curvature="0"
         inkscape:export-xdpi="50.239616"
         inkscape:export-ydpi="50.239616" />
      <path
         style="opacity:1;fill:#5e2110;fill-opacity:1;fill-rule:nonzero;stroke:none;stroke-width:1.90350473;stroke-linecap:round;stroke-linejoin:round;stroke-miterlimit:4;stroke-dasharray:none;stroke-dashoffset:0;stroke-opacity:0.48068668;paint-order:normal"
         d="m 156.07278,201.62412 c 1.38273,1.88574 1.97539,1.52535 5.46417,2.38245 14.79359,5.50801 2.06339,18.05742 -11.72823,12.4999 -1.8173,-3.96958 -0.54484,-5.92026 1.43834,-7.40545 1.30591,-1.25334 0.83955,-3.00128 -0.30819,-4.93982 -0.6621,0.32719 5.79527,-2.86391 5.13391,-2.53708 z"
         id="path862"
         inkscape:connector-curvature="0"
         inkscape:export-xdpi="50.239616"
         inkscape:export-ydpi="50.239616" />
      <path
         style="opacity:1;fill:#215e10;fill-opacity:1;fill-rule:nonzero;stroke:none;stroke-width:1.23599994;stroke-linecap:round;stroke-linejoin:round;stroke-miterlimit:4;stroke-dasharray:none;stroke-dashoffset:0;stroke-opacity:0.48068668;paint-order:normal"
         d="m 156.14904,202.28302 c 0,1.86186 -1.43226,3.36685 -3.19959,3.3615 -1.76794,-0.005 -3.2016,-1.51998 -3.2016,-3.38301 0,-1.86302 1.43366,-3.36801 3.2016,-3.36148 1.76733,0.007 3.19959,1.52114 3.19959,3.38299 z"
         id="path858"
         inkscape:connector-curvature="0"
         inkscape:export-xdpi="50.239616"
         inkscape:export-ydpi="50.239616" />
      <path
         style="opacity:1;fill:#5e2110;fill-opacity:1;fill-rule:nonzero;stroke:none;stroke-width:1.23599994;stroke-linecap:round;stroke-linejoin:round;stroke-miterlimit:4;stroke-dasharray:none;stroke-dashoffset:0;stroke-opacity:0.48068668;paint-order:normal"
         d="m 153.48287,202.49518 c 0,0.64114 -0.56719,1.15906 -1.26694,1.1568 -0.69984,-0.002 -1.26725,-0.52396 -1.26724,-1.16526 0,-0.64129 0.5674,-1.1592 1.26724,-1.15678 0.69975,0.002 1.26693,0.52411 1.26694,1.16524 z"
         id="path860"
         inkscape:connector-curvature="0"
         inkscape:export-xdpi="50.239616"
         inkscape:export-ydpi="50.239616" />
      <path
         style="opacity:1;fill:#215e10;fill-opacity:1;fill-rule:nonzero;stroke:none;stroke-width:1.24790835;stroke-linecap:round;stroke-linejoin:round;stroke-miterlimit:4;stroke-dasharray:none;stroke-dashoffset:0;stroke-opacity:0.48068668;paint-order:normal"
         d="m 155.66056,163.926 c -1.85615,7.06384 -27.96285,5.72954 -33.79225,-0.0724 -4.90874,-11.27222 -4.0785,-27.01669 1.13693,-32.31948 5.54984,-4.29291 23.43107,-4.71491 30.74054,-0.24578 0.50806,1.41539 1.14584,3.13499 0.64081,4.94106 -0.77081,10.32885 -0.59362,18.23291 1.3766,23.25797 0.28199,0.71921 0.42267,3.50368 -0.10238,4.43867 z"
         id="path839"
         inkscape:connector-curvature="0"
         sodipodi:nodetypes="cccccccc"
         inkscape:export-xdpi="50.239616"
         inkscape:export-ydpi="50.239616" />
      <path
         style="opacity:1;fill:#161616;fill-opacity:1;fill-rule:nonzero;stroke:none;stroke-width:1.23568046;stroke-linecap:round;stroke-linejoin:round;stroke-miterlimit:4;stroke-dasharray:none;stroke-dashoffset:0;stroke-opacity:0.48068668;paint-order:normal"
         d="m 152.58522,148.49198 c 0,2.40106 -1.38276,4.33614 -3.08901,4.32213 -1.70682,-0.014 -3.09089,-1.97299 -3.09089,-4.3755 0,-2.40251 1.38407,-4.33759 3.09089,-4.32211 1.70625,0.0155 3.08901,1.97443 3.08901,4.37548 z"
         id="ellipse843"
         inkscape:connector-curvature="0"
         inkscape:export-xdpi="50.239616"
         inkscape:export-ydpi="50.239616" />
      <path
         style="opacity:1;fill:#161616;fill-opacity:1;fill-rule:nonzero;stroke:#161616;stroke-width:1.23599994;stroke-linecap:round;stroke-linejoin:round;stroke-miterlimit:4;stroke-dasharray:none;stroke-dashoffset:0;stroke-opacity:1;paint-order:normal"
         d="m 138.8597,143.45833 c 0,0 16.71481,0.15241 16.71481,0.15241 0.002,-0.0249 -0.24916,3.01678 -0.24711,2.99188 0,0 -14.71533,-0.12986 -14.71533,-0.12986 -0.0196,-0.0338 -1.73273,-2.98065 -1.75237,-3.01443 z"
         id="path873"
         inkscape:connector-curvature="0"
         inkscape:export-xdpi="50.239616"
         inkscape:export-ydpi="50.239616" />
    </g>
    <ellipse
       style="opacity:1;fill:#3e3730;fill-opacity:1;fill-rule:nonzero;stroke:none;stroke-width:1;stroke-linecap:round;stroke-linejoin:round;stroke-miterlimit:4;stroke-dasharray:none;stroke-dashoffset:0;stroke-opacity:1;paint-order:normal"
       id="path4583-9"
       cx="88.977524"
       cy="189.47002"
       rx="15.100729"
       ry="15.56845"
       inkscape:export-filename="C:\Users\Louis\rect4587-4.png"
       inkscape:export-xdpi="50"
       inkscape:export-ydpi="50" />
    <ellipse
       ry="13.501397"
       rx="13.095776"
       cy="189.4653"
       cx="89.177986"
       id="ellipse4585-9"
       style="opacity:1;fill:#5e3710;fill-opacity:1;fill-rule:nonzero;stroke:none;stroke-width:0.86722815;stroke-linecap:round;stroke-linejoin:round;stroke-miterlimit:4;stroke-dasharray:none;stroke-dashoffset:0;stroke-opacity:1;paint-order:normal"
       inkscape:export-filename="C:\Users\Louis\rect4587-4.png"
       inkscape:export-xdpi="50"
       inkscape:export-ydpi="50" />
    <rect
       style="opacity:1;fill:#3e3730;fill-opacity:1;fill-rule:nonzero;stroke:none;stroke-width:1;stroke-linecap:round;stroke-linejoin:round;stroke-miterlimit:4;stroke-dasharray:none;stroke-dashoffset:0;stroke-opacity:1;paint-order:normal"
       id="rect4587-4"
       width="8.6862593"
       height="8.6862593"
       x="84.300308"
       y="185.66142"
       ry="4.3431296"
       inkscape:export-filename="C:\Users\Louis\rect4587-4.png"
       inkscape:export-xdpi="50"
       inkscape:export-ydpi="50" />
  </g>
</svg>
