<?xml version="1.0" encoding="UTF-8" standalone="no"?>
<!-- Created with Inkscape (http://www.inkscape.org/) -->

<svg
   xmlns:dc="http://purl.org/dc/elements/1.1/"
   xmlns:cc="http://creativecommons.org/ns#"
   xmlns:rdf="http://www.w3.org/1999/02/22-rdf-syntax-ns#"
   xmlns:svg="http://www.w3.org/2000/svg"
   xmlns="http://www.w3.org/2000/svg"
   xmlns:xlink="http://www.w3.org/1999/xlink"
   xmlns:sodipodi="http://sodipodi.sourceforge.net/DTD/sodipodi-0.dtd"
   xmlns:inkscape="http://www.inkscape.org/namespaces/inkscape"
   width="210mm"
   height="297mm"
   viewBox="0 0 210 297"
   version="1.1"
   id="svg8"
   inkscape:version="0.92.3 (2405546, 2018-03-11)"
   sodipodi:docname="tree2.svg"
   inkscape:export-filename="C:\Users\Louis\Documents\Enfants\Baudouin\programmation\unity\RoguelikeGit\Assets\Resources\TilesTextures\tree2.png"
   inkscape:export-xdpi="15.767002"
   inkscape:export-ydpi="15.767002">
  <sodipodi:namedview
     id="base"
     pagecolor="#ffffff"
     bordercolor="#666666"
     borderopacity="1.0"
     inkscape:pageopacity="0.0"
     inkscape:pageshadow="2"
     inkscape:zoom="0.70710678"
     inkscape:cx="319.30967"
     inkscape:cy="612.98582"
     inkscape:document-units="mm"
     inkscape:current-layer="svg8"
     showgrid="false"
     inkscape:window-width="1600"
     inkscape:window-height="837"
     inkscape:window-x="-8"
     inkscape:window-y="-8"
     inkscape:window-maximized="1"
     objecttolerance="4" />
  <defs
     id="defs2">
    <linearGradient
       inkscape:collect="always"
       id="linearGradient3039">
      <stop
         style="stop-color:#437a0e;stop-opacity:1;"
         offset="0"
         id="stop3035" />
      <stop
         style="stop-color:#437a0e;stop-opacity:0;"
         offset="1"
         id="stop3037" />
    </linearGradient>
    <linearGradient
       inkscape:collect="always"
       id="linearGradient3024">
      <stop
         style="stop-color:#99502e;stop-opacity:1;"
         offset="0"
         id="stop3020" />
      <stop
         style="stop-color:#99502e;stop-opacity:0;"
         offset="1"
         id="stop3022" />
    </linearGradient>
    <linearGradient
       inkscape:collect="always"
       id="linearGradient3014">
      <stop
         style="stop-color:#99502e;stop-opacity:1;"
         offset="0"
         id="stop3010" />
      <stop
         style="stop-color:#99502e;stop-opacity:0;"
         offset="1"
         id="stop3012" />
    </linearGradient>
    <pattern
       id="pattern2330"
       patternTransform="matrix(0.26458333,0,0,0.26458333,118.65548,151.49593)"
       height="48.592313"
       width="61.976041"
       patternUnits="userSpaceOnUse">
      <path
         sodipodi:nodetypes="cccccccccccccccccccccccccccccscscccccccccccccccccc"
         inkscape:connector-curvature="0"
         id="path908"
         d="M 30.749292,9.1202771e-4 C 28.229042,-0.04408797 25.981702,1.580152 25.233662,3.987242 c -0.90288,-0.13139 -1.82414,-0.0429 -2.68554,0.25781 -3.5331,-1.48252 -7.48896,0.89356 -7.83985,4.7089899 -0.36111,0.39599 -0.66426,0.84118 -0.90039,1.3222701 -3.19394,-0.9455501 -6.5109999,1.05281 -7.1679699,4.31835 -2.28123,1.24633 -3.42272,3.8843 -2.76953,6.40039 -1.7059499,1.18988 -2.6234699,3.21831 -2.3906199,5.28516 l 0.58203,4.48047 c 0.0721,0.54847 0.22412,1.08344 0.45117,1.58789 -3.85574,2.58573 -3.13965,8.45604 1.2246099,10.039059 0.34542,3.17515 3.24403,5.43856 6.4081999,5.00391 l 3.58008,-0.54492 h 0.008 l 0.81641,0.18554 c 0.11948,-0.0451 0.23193,-0.10978 0.35156,-0.15429 1.05682,-0.39326 2.11521,-0.76889 3.1211,-1.25782 1.00588,-0.48892 1.95783,-1.09065 2.80078,-1.93359 0.64932,-0.64932 1.73713,-1.06692 2.85546,-1.51562 1.11834,-0.448699 2.26692,-0.929049 3.03711,-1.699219 0.77073,-0.77072 1.54432,-1.41154 2.31446,-1.9336 0.77014,-0.52205 1.53855,-0.92381 2.30273,-1.21875 0.48477,-0.18709 -2.19396,4.663999 -1.71337,4.56121 l 0.0176,-0.0156 0.006,-0.008 0.90039,-0.50195 0.0176,0.31641 c 0.71531,-0.0759 1.42494,-0.0764 2.125,0.0137 1.47218,0.18933 2.90638,0.725349 4.27929,1.521479 1.2785,0.81067 0.0145,2.26239 3.91602,3.08204 0.41573,0.0873 0.73254,0.46634 1.23047,0.5625 0.49793,0.0961 1.06109,0.12414 1.625,0.15234 0.56391,0.0282 1.12864,0.0558 1.62695,0.15234 0.4935,0.0956 2.43783,0.17175 2.73856,0.46735 l 3.44504,-0.33453 c 0.18794,-0.0148 0.37501,-0.0389 0.56054,-0.0723 0.18442,-0.0358 0.36694,-0.0808 0.54688,-0.13477 0.61946,-0.18214 1.20325,-0.46876 1.72619,-0.84749 l 3.595699,-2.59961 c 3.03108,-2.265759 4.55195,-6.540499 1.52386,-8.810269 3.87054,-0.92009 2.38761,-8.05534 0.99043,-9.165 2.13924,-2.89773 1.06956,-7.0297 -2.20703,-8.52539 0.0513,-1.90917 -0.86193,-3.7159 -2.42968,-4.80664 -0.35901,-1.72764 -1.501909,-3.1896501 -3.091799,-3.9550801 -0.31223,-2.2614899 -1.95033,-4.1151299 -4.15625,-4.7031299 -1.66142,-1.60827 -4.13303,-2.04648 -6.24609,-1.10742 -1.93773,-1.62982998 -4.72123,-1.77728998 -6.82032,-0.36133 l -1.60937,-1.15234 C 33.000152,0.38639202 31.891202,0.02150203 30.749432,9.1202771e-4 Z"
         style="color:#000000;font-style:normal;font-variant:normal;font-weight:normal;font-stretch:normal;font-size:medium;line-height:normal;font-family:sans-serif;font-variant-ligatures:normal;font-variant-position:normal;font-variant-caps:normal;font-variant-numeric:normal;font-variant-alternates:normal;font-feature-settings:normal;text-indent:0;text-align:start;text-decoration:none;text-decoration-line:none;text-decoration-style:solid;text-decoration-color:#000000;letter-spacing:normal;word-spacing:normal;text-transform:none;writing-mode:lr-tb;direction:ltr;text-orientation:mixed;dominant-baseline:auto;baseline-shift:baseline;text-anchor:start;white-space:normal;shape-padding:0;clip-rule:nonzero;display:inline;overflow:visible;visibility:visible;opacity:1;isolation:auto;mix-blend-mode:normal;color-interpolation:sRGB;color-interpolation-filters:linearRGB;solid-color:#000000;solid-opacity:1;vector-effect:none;fill:#58a012;fill-opacity:1;fill-rule:nonzero;stroke:none;stroke-width:11.33858299;stroke-linecap:butt;stroke-linejoin:round;stroke-miterlimit:4;stroke-dasharray:none;stroke-dashoffset:0;stroke-opacity:1;paint-order:normal;color-rendering:auto;image-rendering:auto;shape-rendering:auto;text-rendering:auto;enable-background:accumulate" />
      <path
         inkscape:connector-curvature="0"
         id="path908-3"
         d="m 29.397936,46.045853 a 3.0869987,3.6402358 69.217922 0 0 2.477669,-3.319522 3.0869987,3.6402358 69.217922 0 0 1.549682,-0.76679 3.0869987,3.6402358 69.217922 0 0 3.71709,-4.23515 3.0869987,3.6402358 69.217922 0 0 0.26759,-0.880894 3.0869987,3.6402358 69.217922 0 0 3.395868,-3.878703 3.0869987,3.6402358 69.217922 0 0 0.346583,-3.887357 3.0869987,3.6402358 69.217922 0 0 0.348094,-3.234671 l -1.261417,-2.123905 a 3.0869987,3.6402358 69.217922 0 0 -0.593121,-0.694715 3.0869987,3.6402358 69.217922 0 0 -2.77886,-4.777701 3.0869987,3.6402358 69.217922 0 0 -4.844372,-1.007509 l -2.024995,1.123427 -0.0035,0.0014 -0.525014,0.09978 c -0.06198,0.05178 -0.116032,0.110362 -0.178394,0.161008 -0.550299,0.44897 -1.105209,0.889436 -1.605581,1.374614 -0.500485,0.485065 -0.945676,1.014614 -1.276649,1.639861 -0.255118,0.481626 -0.818797,0.950325 -1.394532,1.441852 -0.575773,0.491377 -1.163036,1.006224 -1.465436,1.577537 -0.302741,0.57173 -0.633487,1.078526 -0.986495,1.524624 -0.353008,0.44606 -0.729524,0.830929 -1.125316,1.160958 -0.250961,0.209385 -0.521349,0.359433 -0.787049,0.525467 l -0.0076,0.01134 -0.0022,0.0038 -0.434873,0.466621 -0.07861,-0.154205 c -0.411288,0.207874 -0.834671,0.376063 -1.271471,0.494665 -0.916989,0.253228 -1.882091,0.322393 -2.86371,0.246047 -0.981581,-0.07672 -1.980057,-0.298205 -2.965342,-0.627893 -0.240378,-0.0805 -0.532271,-0.06198 -0.84892,0.0076 -0.316724,0.06954 -0.658431,0.188976 -1.000667,0.308032 -0.341292,0.121322 -0.684662,0.239622 -1.00184,0.308787 -0.3140784,0.06841 -0.602154,0.08617 -0.8418895,0.0076 l -2.8747086,1.39011 a 3.0869987,3.6402358 69.217922 0 0 -0.319748,0.169323 3.0869987,3.6402358 69.217922 0 0 -0.2989607,0.197669 3.0869987,3.6402358 69.217922 0 0 -0.8570456,0.836863 l -1.6150678,2.164498 a 3.0869987,3.6402358 69.217922 0 0 1.8474709,4.584718 3.0869987,3.6402358 69.217922 0 0 1.1974299,1.851817 3.0869987,3.6402358 69.217922 0 0 3.0561638,3.780813 3.0869987,3.6402358 69.217922 0 0 2.4303496,1.850721 3.0869987,3.6402358 69.217922 0 0 2.651679,1.263912 3.0869987,3.6402358 69.217922 0 0 3.439445,1.389279 3.0869987,3.6402358 69.217922 0 0 3.952744,-0.921109 3.0869987,3.6402358 69.217922 0 0 4.143042,-1.434066 l 1.195351,0.200315 a 3.0869987,3.6402358 69.217922 0 0 2.111963,-0.225638 z"
         style="color:#000000;font-style:normal;font-variant:normal;font-weight:normal;font-stretch:normal;font-size:medium;line-height:normal;font-family:sans-serif;font-variant-ligatures:normal;font-variant-position:normal;font-variant-caps:normal;font-variant-numeric:normal;font-variant-alternates:normal;font-feature-settings:normal;text-indent:0;text-align:start;text-decoration:none;text-decoration-line:none;text-decoration-style:solid;text-decoration-color:#000000;letter-spacing:normal;word-spacing:normal;text-transform:none;writing-mode:lr-tb;direction:ltr;text-orientation:mixed;dominant-baseline:auto;baseline-shift:baseline;text-anchor:start;white-space:normal;shape-padding:0;clip-rule:nonzero;display:inline;overflow:visible;visibility:visible;opacity:1;isolation:auto;mix-blend-mode:normal;color-interpolation:sRGB;color-interpolation-filters:linearRGB;solid-color:#000000;solid-opacity:1;vector-effect:none;fill:#58a012;fill-opacity:1;fill-rule:nonzero;stroke:none;stroke-width:6.70377684;stroke-linecap:butt;stroke-linejoin:round;stroke-miterlimit:4;stroke-dasharray:none;stroke-dashoffset:0;stroke-opacity:1;paint-order:normal;color-rendering:auto;image-rendering:auto;shape-rendering:auto;text-rendering:auto;enable-background:accumulate" />
    </pattern>
    <pattern
       id="pattern2330-3"
       patternTransform="matrix(0.26458333,0,0,0.26458333,118.65548,151.49593)"
       height="48.592313"
       width="61.976041"
       patternUnits="userSpaceOnUse">
      <path
         sodipodi:nodetypes="cccccccccccccccccccccccccccccscscccccccccccccccccc"
         inkscape:connector-curvature="0"
         id="path908-5"
         d="M 30.749292,9.1202771e-4 C 28.229042,-0.04408797 25.981702,1.580152 25.233662,3.987242 c -0.90288,-0.13139 -1.82414,-0.0429 -2.68554,0.25781 -3.5331,-1.48252 -7.48896,0.89356 -7.83985,4.7089899 -0.36111,0.39599 -0.66426,0.84118 -0.90039,1.3222701 -3.19394,-0.9455501 -6.5109999,1.05281 -7.1679699,4.31835 -2.28123,1.24633 -3.42272,3.8843 -2.76953,6.40039 -1.7059499,1.18988 -2.6234699,3.21831 -2.3906199,5.28516 l 0.58203,4.48047 c 0.0721,0.54847 0.22412,1.08344 0.45117,1.58789 -3.85574,2.58573 -3.13965,8.45604 1.2246099,10.039059 0.34542,3.17515 3.24403,5.43856 6.4081999,5.00391 l 3.58008,-0.54492 h 0.008 l 0.81641,0.18554 c 0.11948,-0.0451 0.23193,-0.10978 0.35156,-0.15429 1.05682,-0.39326 2.11521,-0.76889 3.1211,-1.25782 1.00588,-0.48892 1.95783,-1.09065 2.80078,-1.93359 0.64932,-0.64932 1.73713,-1.06692 2.85546,-1.51562 1.11834,-0.448699 2.26692,-0.929049 3.03711,-1.699219 0.77073,-0.77072 1.54432,-1.41154 2.31446,-1.9336 0.77014,-0.52205 1.53855,-0.92381 2.30273,-1.21875 0.48477,-0.18709 -2.19396,4.663999 -1.71337,4.56121 l 0.0176,-0.0156 0.006,-0.008 0.90039,-0.50195 0.0176,0.31641 c 0.71531,-0.0759 1.42494,-0.0764 2.125,0.0137 1.47218,0.18933 2.90638,0.725349 4.27929,1.521479 1.2785,0.81067 0.0145,2.26239 3.91602,3.08204 0.41573,0.0873 0.73254,0.46634 1.23047,0.5625 0.49793,0.0961 1.06109,0.12414 1.625,0.15234 0.56391,0.0282 1.12864,0.0558 1.62695,0.15234 0.4935,0.0956 2.43783,0.17175 2.73856,0.46735 l 3.44504,-0.33453 c 0.18794,-0.0148 0.37501,-0.0389 0.56054,-0.0723 0.18442,-0.0358 0.36694,-0.0808 0.54688,-0.13477 0.61946,-0.18214 1.20325,-0.46876 1.72619,-0.84749 l 3.595699,-2.59961 c 3.03108,-2.265759 4.55195,-6.540499 1.52386,-8.810269 3.87054,-0.92009 2.38761,-8.05534 0.99043,-9.165 2.13924,-2.89773 1.06956,-7.0297 -2.20703,-8.52539 0.0513,-1.90917 -0.86193,-3.7159 -2.42968,-4.80664 -0.35901,-1.72764 -1.501909,-3.1896501 -3.091799,-3.9550801 -0.31223,-2.2614899 -1.95033,-4.1151299 -4.15625,-4.7031299 -1.66142,-1.60827 -4.13303,-2.04648 -6.24609,-1.10742 -1.93773,-1.62982998 -4.72123,-1.77728998 -6.82032,-0.36133 l -1.60937,-1.15234 C 33.000152,0.38639202 31.891202,0.02150203 30.749432,9.1202771e-4 Z"
         style="color:#000000;font-style:normal;font-variant:normal;font-weight:normal;font-stretch:normal;font-size:medium;line-height:normal;font-family:sans-serif;font-variant-ligatures:normal;font-variant-position:normal;font-variant-caps:normal;font-variant-numeric:normal;font-variant-alternates:normal;font-feature-settings:normal;text-indent:0;text-align:start;text-decoration:none;text-decoration-line:none;text-decoration-style:solid;text-decoration-color:#000000;letter-spacing:normal;word-spacing:normal;text-transform:none;writing-mode:lr-tb;direction:ltr;text-orientation:mixed;dominant-baseline:auto;baseline-shift:baseline;text-anchor:start;white-space:normal;shape-padding:0;clip-rule:nonzero;display:inline;overflow:visible;visibility:visible;opacity:1;isolation:auto;mix-blend-mode:normal;color-interpolation:sRGB;color-interpolation-filters:linearRGB;solid-color:#000000;solid-opacity:1;vector-effect:none;fill:#58a012;fill-opacity:1;fill-rule:nonzero;stroke:none;stroke-width:11.33858299;stroke-linecap:butt;stroke-linejoin:round;stroke-miterlimit:4;stroke-dasharray:none;stroke-dashoffset:0;stroke-opacity:1;paint-order:normal;color-rendering:auto;image-rendering:auto;shape-rendering:auto;text-rendering:auto;enable-background:accumulate" />
      <path
         inkscape:connector-curvature="0"
         id="path908-3-6"
         d="m 29.397936,46.045853 a 3.0869987,3.6402358 69.217922 0 0 2.477669,-3.319522 3.0869987,3.6402358 69.217922 0 0 1.549682,-0.76679 3.0869987,3.6402358 69.217922 0 0 3.71709,-4.23515 3.0869987,3.6402358 69.217922 0 0 0.26759,-0.880894 3.0869987,3.6402358 69.217922 0 0 3.395868,-3.878703 3.0869987,3.6402358 69.217922 0 0 0.346583,-3.887357 3.0869987,3.6402358 69.217922 0 0 0.348094,-3.234671 l -1.261417,-2.123905 a 3.0869987,3.6402358 69.217922 0 0 -0.593121,-0.694715 3.0869987,3.6402358 69.217922 0 0 -2.77886,-4.777701 3.0869987,3.6402358 69.217922 0 0 -4.844372,-1.007509 l -2.024995,1.123427 -0.0035,0.0014 -0.525014,0.09978 c -0.06198,0.05178 -0.116032,0.110362 -0.178394,0.161008 -0.550299,0.44897 -1.105209,0.889436 -1.605581,1.374614 -0.500485,0.485065 -0.945676,1.014614 -1.276649,1.639861 -0.255118,0.481626 -0.818797,0.950325 -1.394532,1.441852 -0.575773,0.491377 -1.163036,1.006224 -1.465436,1.577537 -0.302741,0.57173 -0.633487,1.078526 -0.986495,1.524624 -0.353008,0.44606 -0.729524,0.830929 -1.125316,1.160958 -0.250961,0.209385 -0.521349,0.359433 -0.787049,0.525467 l -0.0076,0.01134 -0.0022,0.0038 -0.434873,0.466621 -0.07861,-0.154205 c -0.411288,0.207874 -0.834671,0.376063 -1.271471,0.494665 -0.916989,0.253228 -1.882091,0.322393 -2.86371,0.246047 -0.981581,-0.07672 -1.980057,-0.298205 -2.965342,-0.627893 -0.240378,-0.0805 -0.532271,-0.06198 -0.84892,0.0076 -0.316724,0.06954 -0.658431,0.188976 -1.000667,0.308032 -0.341292,0.121322 -0.684662,0.239622 -1.00184,0.308787 -0.3140784,0.06841 -0.602154,0.08617 -0.8418895,0.0076 l -2.8747086,1.39011 a 3.0869987,3.6402358 69.217922 0 0 -0.319748,0.169323 3.0869987,3.6402358 69.217922 0 0 -0.2989607,0.197669 3.0869987,3.6402358 69.217922 0 0 -0.8570456,0.836863 l -1.6150678,2.164498 a 3.0869987,3.6402358 69.217922 0 0 1.8474709,4.584718 3.0869987,3.6402358 69.217922 0 0 1.1974299,1.851817 3.0869987,3.6402358 69.217922 0 0 3.0561638,3.780813 3.0869987,3.6402358 69.217922 0 0 2.4303496,1.850721 3.0869987,3.6402358 69.217922 0 0 2.651679,1.263912 3.0869987,3.6402358 69.217922 0 0 3.439445,1.389279 3.0869987,3.6402358 69.217922 0 0 3.952744,-0.921109 3.0869987,3.6402358 69.217922 0 0 4.143042,-1.434066 l 1.195351,0.200315 a 3.0869987,3.6402358 69.217922 0 0 2.111963,-0.225638 z"
         style="color:#000000;font-style:normal;font-variant:normal;font-weight:normal;font-stretch:normal;font-size:medium;line-height:normal;font-family:sans-serif;font-variant-ligatures:normal;font-variant-position:normal;font-variant-caps:normal;font-variant-numeric:normal;font-variant-alternates:normal;font-feature-settings:normal;text-indent:0;text-align:start;text-decoration:none;text-decoration-line:none;text-decoration-style:solid;text-decoration-color:#000000;letter-spacing:normal;word-spacing:normal;text-transform:none;writing-mode:lr-tb;direction:ltr;text-orientation:mixed;dominant-baseline:auto;baseline-shift:baseline;text-anchor:start;white-space:normal;shape-padding:0;clip-rule:nonzero;display:inline;overflow:visible;visibility:visible;opacity:1;isolation:auto;mix-blend-mode:normal;color-interpolation:sRGB;color-interpolation-filters:linearRGB;solid-color:#000000;solid-opacity:1;vector-effect:none;fill:#58a012;fill-opacity:1;fill-rule:nonzero;stroke:none;stroke-width:6.70377684;stroke-linecap:butt;stroke-linejoin:round;stroke-miterlimit:4;stroke-dasharray:none;stroke-dashoffset:0;stroke-opacity:1;paint-order:normal;color-rendering:auto;image-rendering:auto;shape-rendering:auto;text-rendering:auto;enable-background:accumulate" />
    </pattern>
    <linearGradient
       inkscape:collect="always"
       xlink:href="#linearGradient3014"
       id="linearGradient3016"
       x1="358.02945"
       y1="664.44073"
       x2="418.88794"
       y2="662.3194"
       gradientUnits="userSpaceOnUse" />
    <linearGradient
       inkscape:collect="always"
       xlink:href="#linearGradient3024"
       id="linearGradient3026"
       x1="101.87492"
       y1="157.05971"
       x2="108.12498"
       y2="165.36133"
       gradientUnits="userSpaceOnUse"
       gradientTransform="scale(3.7795276)" />
    <linearGradient
       inkscape:collect="always"
       xlink:href="#linearGradient3039"
       id="linearGradient3041"
       x1="103.18001"
       y1="159.28503"
       x2="103.07734"
       y2="133.4668"
       gradientUnits="userSpaceOnUse"
       gradientTransform="scale(3.7795276)" />
    <radialGradient
       inkscape:collect="always"
       xlink:href="#linearGradient5120"
       id="radialGradient5122"
       gradientUnits="userSpaceOnUse"
       gradientTransform="matrix(1,0,0,0.23600076,-13.577288,150.59691)"
       cx="117.59859"
       cy="243.00294"
       fx="117.59859"
       fy="243.00294"
       r="56.661137" />
    <linearGradient
       id="linearGradient5120"
       inkscape:collect="always">
      <stop
         id="stop5116"
         offset="0"
         style="stop-color:#000000;stop-opacity:0.60169494" />
      <stop
         id="stop5118"
         offset="1"
         style="stop-color:#000000;stop-opacity:0" />
    </linearGradient>
  </defs>
  <metadata
     id="metadata5">
    <rdf:RDF>
      <cc:Work
         rdf:about="">
        <dc:format>image/svg+xml</dc:format>
        <dc:type
           rdf:resource="http://purl.org/dc/dcmitype/StillImage" />
        <dc:title></dc:title>
      </cc:Work>
    </rdf:RDF>
  </metadata>
  <path
     sodipodi:open="true"
     d="m 157.60704,203.60021 a 56.661137,13.372072 0 0 1 -34.06925,16.89938 56.661137,13.372072 0 0 1 -72.295849,-7.68953 56.661137,13.372072 0 0 1 31.082149,-17.2171 56.661137,13.372072 0 0 1 73.58009,6.97816"
     sodipodi:end="5.8695597"
     sodipodi:start="5.9522011"
     sodipodi:ry="13.372072"
     sodipodi:rx="56.661137"
     sodipodi:cy="207.94579"
     sodipodi:cx="104.0213"
     sodipodi:type="arc"
     id="path5106"
     style="opacity:1;fill:url(#radialGradient5122);fill-opacity:1;fill-rule:evenodd;stroke:none;stroke-width:0.36059356;stroke-linecap:butt;stroke-linejoin:round;stroke-miterlimit:4;stroke-dasharray:none;stroke-dashoffset:0;stroke-opacity:1;paint-order:normal"
     inkscape:export-filename="C:\Users\Louis\Documents\Enfants\Baudouin\programmation\unity\RoguelikeGit\Assets\Resources\TilesTextures\path5106.png"
     inkscape:export-xdpi="15"
     inkscape:export-ydpi="15" />
  <path
     style="color:#000000;font-style:normal;font-variant:normal;font-weight:normal;font-stretch:normal;font-size:medium;line-height:normal;font-family:sans-serif;font-variant-ligatures:normal;font-variant-position:normal;font-variant-caps:normal;font-variant-numeric:normal;font-variant-alternates:normal;font-feature-settings:normal;text-indent:0;text-align:start;text-decoration:none;text-decoration-line:none;text-decoration-style:solid;text-decoration-color:#000000;letter-spacing:normal;word-spacing:normal;text-transform:none;writing-mode:lr-tb;direction:ltr;text-orientation:mixed;dominant-baseline:auto;baseline-shift:baseline;text-anchor:start;white-space:normal;shape-padding:0;clip-rule:nonzero;display:inline;overflow:visible;visibility:visible;opacity:1;isolation:auto;mix-blend-mode:normal;color-interpolation:sRGB;color-interpolation-filters:linearRGB;solid-color:#000000;solid-opacity:1;vector-effect:none;fill:#b35e35;fill-opacity:1;fill-rule:nonzero;stroke:none;stroke-width:31.15953255;stroke-linecap:butt;stroke-linejoin:round;stroke-miterlimit:4;stroke-dasharray:none;stroke-dashoffset:0;stroke-opacity:1;paint-order:normal;color-rendering:auto;image-rendering:auto;shape-rendering:auto;text-rendering:auto;enable-background:accumulate"
     d="m 101.83441,137.14945 c 6.44717,5.26575 8.09064,6.18089 12.67547,12.4316 1.67238,2.29105 -0.4959,30.20209 5.99393,55.39274 0.59316,2.15295 0.60483,2.48717 0.0195,3.13218 -8.28302,2.02533 -25.823374,0.40999 -32.098224,0.2709 -1.10529,0.0432 -1.05657,-1.42425 0.0426,-2.18453 9.471564,-2.82383 7.878818,-47.42165 7.63561,-61.98892 v -0.0217 c 4.584394,-4.15772 3.01614,-5.18034 5.731194,-7.03231 z"
     id="path922-8"
     inkscape:connector-curvature="0"
     sodipodi:nodetypes="cccccccccc" />
  <path
     style="fill:url(#linearGradient3016);fill-opacity:1;stroke:none;stroke-width:0.99999994px;stroke-linecap:butt;stroke-linejoin:miter;stroke-opacity:1"
     d="m 373.12695,534.23828 c -2.07077,2.86726 -5.06154,6.31091 -9.90234,10.70117 v 0.082 c 0.91921,55.0574 6.93866,223.61632 -28.85938,234.28907 -4.15434,2.8735 -4.33763,8.41913 -0.16015,8.25586 2.61186,0.0579 26.93937,1.25251 30.48047,1.41992 46.02455,-17.17575 14.16102,-190.17569 8.4414,-254.74805 z"
     id="path2997"
     inkscape:connector-curvature="0"
     sodipodi:nodetypes="cccccccc"
     transform="scale(0.26458333)" />
  <path
     style="fill:url(#linearGradient3026);fill-opacity:1;stroke:none;stroke-width:0.99999994px;stroke-linecap:butt;stroke-linejoin:miter;stroke-opacity:1"
     d="M 384.88672 518.35938 C 374.6251 525.35895 380.55145 529.22524 363.22461 544.93945 L 363.22461 545.02148 C 363.49353 561.12866 364.19292 586.97244 364.16016 615.71289 C 386.81857 612.65047 415.28124 607.34277 435.94336 599.70312 C 435.34878 580.75248 434.80665 568.10431 432.79297 565.3457 C 415.46448 541.72097 409.25398 538.26142 384.88672 518.35938 z "
     transform="scale(0.26458333)"
     id="path3018" />
  <rect
     id="rect2334"
     y="31.224638"
     x="2.1260383"
     height="139.57158"
     width="205.93762"
     style="fill:none;stroke:none;stroke-width:11.67637825" />
  <g
     id="layer1"
     inkscape:groupmode="layer"
     inkscape:label="Calque 1" />
  <path
     style="color:#000000;font-style:normal;font-variant:normal;font-weight:normal;font-stretch:normal;font-size:medium;line-height:normal;font-family:sans-serif;font-variant-ligatures:normal;font-variant-position:normal;font-variant-caps:normal;font-variant-numeric:normal;font-variant-alternates:normal;font-feature-settings:normal;text-indent:0;text-align:start;text-decoration:none;text-decoration-line:none;text-decoration-style:solid;text-decoration-color:#000000;letter-spacing:normal;word-spacing:normal;text-transform:none;writing-mode:lr-tb;direction:ltr;text-orientation:mixed;dominant-baseline:auto;baseline-shift:baseline;text-anchor:start;white-space:normal;shape-padding:0;clip-rule:nonzero;display:inline;overflow:visible;visibility:visible;opacity:1;isolation:auto;mix-blend-mode:normal;color-interpolation:sRGB;color-interpolation-filters:linearRGB;solid-color:#000000;solid-opacity:1;vector-effect:none;fill:#58a012;fill-opacity:1;fill-rule:nonzero;stroke:none;stroke-width:30.24706268;stroke-linecap:butt;stroke-linejoin:round;stroke-miterlimit:4;stroke-dasharray:none;stroke-dashoffset:0;stroke-opacity:1;color-rendering:auto;image-rendering:auto;shape-rendering:auto;text-rendering:auto;enable-background:accumulate"
     d="m 91.92856,52.209001 c 0.0522,0.0013 0.10436,0.0028 0.15654,0.0047 4.5755,0.15802 8.83673,2.329953 11.60674,5.915917 5.35131,-0.902309 10.78672,1.062339 14.27113,5.158343 0.0293,0.01283 0.0585,0.02574 0.0877,0.03876 l 2.92441,-1.142566 c 1.16567,-0.429948 2.38047,-0.717859 3.61729,-0.857311 7.26671,-2.871909 15.5635,0.137642 19.19538,6.962881 2.8877,2.974054 4.40755,6.98396 4.20407,11.091831 4.85175,1.576501 8.72488,5.116864 9.43984,9.940993 0.64031,1.332437 0.98766,2.744769 1.02645,4.17339 l 0.67923,0.586012 c 2.85013,2.540664 4.21501,5.882391 3.89255,9.207189 3.21485,4.86786 3.28625,11.12339 0.18334,16.06104 1.8449,5.18437 0.66202,10.94608 -3.08358,15.01976 l -0.67922,0.71468 c -0.0388,1.74301 -0.38615,3.46602 -1.02646,5.09168 -1.16294,9.54835 -11.02977,15.56951 -20.24233,12.35273 -4.11719,2.38084 -9.59226,3.03729 -14.58158,1.4211 -1.23682,-0.1143 -2.45162,-0.35039 -3.61729,-0.70279 l -2.92441,-0.93638 c -0.0292,0.0107 -0.0584,0.021 -0.0877,0.0315 -3.4844,3.35721 -6.95538,6.46444 -12.30669,5.72488 -1.53382,6.52415 -7.737408,6.87156 -13.57117,3.35209 -0.0522,0.002 -0.1044,0.003 -0.15655,0.004 v -0.001 c -4.123068,1.71489 -9.993788,-1.16122 -9.877947,-4.64141 -14.490045,5.7509 -22.316824,-5.05487 -22.890963,-7.44627 -0.43246,-0.0257 -0.8636,-0.0695 -1.29227,-0.13126 l -4.95368,-0.71675 c -8.4749,-1.34725 -14.14959,-9.3079 -12.54968,-17.60513 -1.73978,-5.08683 -0.58455,-10.70044 3.02947,-14.72106 l 0.4712,-1.85312 c 0.22598,-0.80972 0.52066,-1.59936 0.88095,-2.36058 -0.67785,-4.44938 -2.20642,-7.70658 3.72761,-13.001792 -2.07142,-9.954381 7.37409,-21.27047 15.45307,-17.300754 0.14785,0.01664 0.29464,0.03879 0.44179,0.05891 -1.03991,-5.955125 1.65356,-11.942699 6.83324,-15.190287 1.13427,-7.031792 7.13672,-12.310669 14.36673,-12.634889 2.26997,-1.153287 4.7981,-1.727062 7.35225,-1.668632 z"
     id="path2371"
     inkscape:connector-curvature="0"
     sodipodi:nodetypes="ccccccccccccccccccccccccccccccccccccccccc" />
  <path
     style="fill:url(#linearGradient3041);fill-opacity:1;stroke:none;stroke-width:0.99999994px;stroke-linecap:butt;stroke-linejoin:miter;stroke-opacity:1"
     d="M 459.04297 499.83984 C 433.67765 544.17223 391.3047 537.63412 355.74609 504.64062 C 347.492 535.38844 318.08994 569.97279 256.08789 511.23633 C 217.46246 529.11982 209.6344 549.32533 148.10938 511.13672 C 150.73525 535.93363 169.90099 557.02216 196.23828 561.20898 L 214.96094 563.91797 C 216.58111 564.15139 218.21121 564.31693 219.8457 564.41406 C 222.01568 573.45242 251.5958 614.29428 306.36133 592.55859 C 305.9235 605.71207 328.11206 616.58108 343.69531 610.09961 L 343.69531 610.10352 C 343.89241 610.09974 344.08982 610.0974 344.28711 610.08984 C 366.33597 623.39178 389.78296 622.07813 395.58008 597.41992 C 415.8055 600.21511 428.92436 588.47187 442.09375 575.7832 C 442.20449 575.74352 442.31542 575.7045 442.42578 575.66406 L 453.47852 579.20312 C 457.8842 580.53503 462.4758 581.42737 467.15039 581.85938 C 486.00766 587.96781 506.70069 585.48673 522.26172 576.48828 C 557.08084 588.64619 594.37221 565.88903 598.76758 529.80078 C 601.18765 523.65655 602.49984 517.14439 602.64648 510.55664 L 605.21484 507.85547 C 606.0564 506.9402 606.86008 505.99958 607.63281 505.04102 C 586.04381 527.56581 554.26386 540.34459 541.64453 508.54492 C 503.61632 536.65633 489.64985 515.31569 459.04297 499.83984 z "
     transform="scale(0.26458333)"
     id="path3033" />
</svg>
